<?xml version="1.0" standalone="no"?>
<!DOCTYPE svg PUBLIC "-//W3C//DTD SVG 20010904//EN"
 "http://www.w3.org/TR/2001/REC-SVG-20010904/DTD/svg10.dtd">
<svg version="1.0" xmlns="http://www.w3.org/2000/svg"
 width="250.000000pt" height="250.000000pt" viewBox="0 0 250.000000 250.000000"
 preserveAspectRatio="xMidYMid meet">
<metadata>
Created by potrace 1.15, written by Peter Selinger 2001-2017
</metadata>
<g transform="translate(0.000000,250.000000) scale(0.100000,-0.100000)"
fill="#000000" stroke="none">
<path d="M1539 2249 c-35 -39 -77 -86 -94 -105 l-30 -35 -179 61 c-99 33 -181
59 -182 57 -2 -1 -30 -81 -64 -177 -33 -96 -63 -182 -67 -190 -3 -8 -7 -17 -7
-20 -1 -3 -24 -69 -51 -147 l-50 -143 -193 0 -192 0 2 -392 3 -393 795 0 795
0 3 393 2 392 -119 0 -120 0 -48 -51 c-33 -34 -55 -50 -68 -48 -15 3 19 46
163 204 100 110 181 203 179 207 -1 3 -92 86 -202 183 l-200 177 -29 -34 c-17
-18 -138 -151 -269 -296 -195 -214 -242 -261 -253 -251 -12 10 0 28 69 103 45
50 172 189 281 308 l198 218 166 -147 c92 -80 177 -156 190 -167 18 -16 25
-17 35 -7 10 10 1 23 -43 63 -100 91 -342 303 -349 306 -4 1 -36 -30 -72 -69z
m-319 -114 c74 -25 141 -47 149 -50 11 -4 11 -9 -3 -24 -17 -19 -20 -18 -131
21 -63 22 -120 38 -127 35 -7 -3 -65 -154 -128 -336 -104 -300 -117 -331 -137
-331 l-22 0 24 68 c158 459 232 662 239 662 1 0 62 -20 136 -45z m575 -125
c94 -82 170 -151 170 -154 0 -14 -369 -406 -381 -406 -9 0 -22 7 -31 15 -14
14 -17 14 -32 0 -10 -8 -36 -15 -60 -15 -35 0 -49 6 -84 39 -101 93 -114 102
-126 87 -9 -11 1 -25 51 -70 l63 -55 -69 -1 c-58 0 -67 2 -57 14 10 11 3 21
-33 52 l-45 37 64 72 c51 57 62 74 52 84 -9 10 -28 -5 -90 -71 l-77 -83 55
-52 c53 -50 55 -53 29 -53 -27 0 -138 84 -132 100 5 13 550 610 557 610 3 0
83 -67 176 -150z m-486 4 c12 -4 11 -9 -5 -25 -20 -19 -20 -19 -79 1 -32 11
-63 20 -69 20 -14 0 -71 -164 -62 -179 14 -22 25 -9 51 63 l27 74 45 -15 c25
-9 41 -18 37 -22 -8 -5 -65 -67 -233 -254 l-26 -29 30 -23 29 -24 -27 -29 -28
-29 33 -28 c35 -29 36 -29 -39 -9 -37 10 -28 -25 10 -41 l32 -14 -62 -1 c-35
0 -63 2 -63 4 0 5 192 556 209 598 l10 27 83 -30 c46 -16 89 -32 97 -35z m-69
-909 c0 -226 -2 -265 -15 -265 -12 0 -15 40 -17 265 -3 247 -2 265 15 265 16
0 17 -19 17 -265z m-120 195 c0 -20 -7 -20 -285 -20 -278 0 -285 0 -285 20 0
20 7 20 285 20 278 0 285 0 285 -20z m0 -125 c0 -13 -38 -15 -285 -15 -247 0
-285 2 -285 15 0 13 38 15 285 15 247 0 285 -2 285 -15z"/>
<path d="M1784 1940 c-5 -5 -52 -10 -104 -12 -81 -3 -95 -6 -98 -20 -3 -16 7
-18 96 -18 69 0 102 4 104 12 5 13 78 -38 78 -54 0 -6 -27 -40 -60 -75 -50
-53 -59 -67 -49 -79 10 -12 25 -1 90 68 l79 83 -57 53 c-60 55 -64 57 -79 42z"/>
<path d="M1401 1852 c-40 -22 -71 -73 -71 -120 0 -122 142 -234 257 -203 122
33 139 195 31 286 -67 57 -153 71 -217 37z m104 -52 c3 -6 -7 -22 -24 -36 -52
-44 -35 -73 28 -48 46 19 75 17 96 -6 12 -13 16 -28 12 -48 -3 -16 -1 -34 5
-40 13 -13 1 -33 -17 -26 -7 3 -23 0 -35 -6 -37 -20 -45 9 -13 42 21 22 24 31
15 40 -10 10 -22 9 -57 -5 -73 -27 -118 8 -101 78 4 14 2 25 -4 25 -5 0 -10 7
-10 16 0 12 6 15 23 11 12 -4 29 -2 37 3 20 13 37 12 45 0z"/>
</g>
</svg>
